<svg width="32" height="32" viewBox="0 0 32 32" fill="none" xmlns="http://www.w3.org/2000/svg">
<path fill-rule="evenodd" clip-rule="evenodd" d="M12.2891 9.20104C12.7454 9.20104 13.1506 9.49304 13.2949 9.92595L13.9807 11.9831C15.0008 15.0432 17.4023 17.4446 20.4627 18.4646L22.52 19.1503C22.9529 19.2946 23.2449 19.6997 23.2449 20.1561C23.2449 20.6124 22.9529 21.0175 22.52 21.1618L20.4627 21.8475C17.4023 22.8676 15.0008 25.2689 13.9807 28.3291L13.2949 30.3862C13.1506 30.8191 12.7454 31.1111 12.2891 31.1111C11.8327 31.1111 11.4276 30.8191 11.2833 30.3862L10.5975 28.3291C9.57737 25.2689 7.17587 22.8676 4.11546 21.8475L2.05822 21.1618C1.62527 21.0175 1.33325 20.6124 1.33325 20.1561C1.33325 19.6997 1.62527 19.2946 2.05822 19.1503L4.11546 18.4646C7.17587 17.4446 9.57737 15.0432 10.5975 11.9831L11.2833 9.92595C11.4276 9.49304 11.8327 9.20104 12.2891 9.20104ZM12.2891 13.5076C11.0351 16.5118 8.64453 18.9021 5.64011 20.1561C8.64453 21.41 11.0351 23.8004 12.2891 26.8046C13.5431 23.8004 15.9336 21.41 18.9381 20.1561C15.9336 18.9021 13.5431 16.5118 12.2891 13.5076Z" fill="white"/>
<path d="M17.9437 9.03055V1.59673C17.9437 1.05124 18.5355 0.711375 19.0067 0.986228L25.379 4.70314C25.8466 4.97587 25.8466 5.6514 25.379 5.92413L19.0067 9.64104C18.5355 9.9159 17.9437 9.57603 17.9437 9.03055Z" fill="white"/>
<path d="M30.6666 13.0883C30.6666 14.6497 29.4008 15.9154 27.8393 15.9154C26.2778 15.9154 25.012 14.6497 25.012 13.0883C25.012 11.5269 26.2778 10.2612 27.8393 10.2612C29.4008 10.2612 30.6666 11.5269 30.6666 13.0883Z" fill="white"/>
</svg>
