<svg width="24" height="24" viewBox="0 0 24 24" fill="none" xmlns="http://www.w3.org/2000/svg">
<path d="M12 22C10.6478 22 9.62923 20.1745 9.61931 17.7486C7.89478 19.4578 5.88003 20.0266 4.92623 19.0711C3.97247 18.1155 4.54129 16.1035 6.25229 14.3807C3.82545 14.3717 2 13.3512 2 12C2 10.6488 3.82549 9.62828 6.25229 9.61928C4.54039 7.89474 3.97247 5.88343 4.92623 4.92893C5.88358 3.97067 7.89471 4.54309 9.61931 6.25141C9.62922 3.82546 10.6479 2 12 2C13.3521 2 14.3708 3.82551 14.3807 6.25141C16.1052 4.54222 18.12 3.97337 19.0738 4.92893C20.0275 5.8845 19.4587 7.89652 17.7477 9.61928C20.1746 9.6283 22 10.6488 22 12C22 13.3512 20.1745 14.3717 17.7477 14.3807C19.4587 16.1044 20.0275 18.1166 19.0738 19.0711C18.1164 20.0284 16.1053 19.456 14.3807 17.7486C14.3708 20.1745 13.3521 22 12 22ZM10.243 15.7637C10.3052 15.7637 10.3674 15.7763 10.4224 15.7997C10.6343 15.8872 10.7551 16.1125 10.71 16.337C10.6189 16.7751 10.5694 17.2376 10.5694 17.7145C10.5694 19.622 11.3266 21.0481 12 21.0481C12.6761 21.0481 13.4306 19.6219 13.4306 17.7145C13.4306 17.2385 13.3819 16.7751 13.29 16.3379C13.244 16.1144 13.3621 15.8872 13.574 15.8006C13.7858 15.7141 14.031 15.7889 14.1554 15.9809C14.397 16.3524 14.6909 16.712 15.0307 17.051C16.3794 18.3996 17.9208 18.8774 18.3978 18.3978C18.8747 17.9209 18.4014 16.3794 17.0519 15.0298C16.712 14.6927 16.3533 14.397 15.9809 14.1554C15.788 14.0301 15.7132 13.7857 15.8016 13.5748C15.8899 13.3639 16.118 13.2476 16.3406 13.2908C16.7751 13.381 17.2385 13.4279 17.7154 13.4279C19.6229 13.4279 21.0499 12.6733 21.0499 11.999C21.0499 11.3247 19.6228 10.5702 17.7154 10.5702C17.2385 10.5702 16.7751 10.6171 16.3406 10.7081C16.1116 10.7622 15.8863 10.636 15.8016 10.4232C15.7132 10.2114 15.788 9.96707 15.9809 9.84358C16.3533 9.60198 16.7129 9.3081 17.0519 8.96914C18.4005 7.61961 18.8747 6.07909 18.3978 5.60115C17.9209 5.12426 16.3794 5.60024 15.0307 6.94795C14.6945 7.28509 14.4006 7.64569 14.1554 8.0189C14.031 8.21002 13.7867 8.28483 13.574 8.1983C13.3648 8.11085 13.244 7.88458 13.2927 7.66102C13.381 7.22291 13.4297 6.75955 13.4297 6.28355C13.4297 4.37602 12.6752 2.94994 11.9991 2.94994C11.3266 2.94994 10.5685 4.37609 10.5685 6.28355C10.5685 6.75953 10.6171 7.22289 10.7091 7.6601C10.7551 7.88366 10.637 8.11083 10.4251 8.19737C10.2133 8.28392 9.96806 8.20999 9.84367 8.01798C9.59847 7.64566 9.3046 7.28417 8.96833 6.94703C7.62064 5.60022 6.08178 5.12514 5.60222 5.60112C5.12534 6.07801 5.59862 7.61954 6.94811 8.96911C7.28798 9.30808 7.64674 9.60196 8.01905 9.84356C8.21197 9.96796 8.2868 10.2132 8.19845 10.4232C8.1101 10.6369 7.88473 10.7604 7.65938 10.7081C7.22487 10.6179 6.76151 10.5711 6.28464 10.5711C4.37713 10.5711 2.95014 11.3256 2.95014 11.9999C2.95014 12.6742 4.37717 13.4287 6.28464 13.4287C6.76151 13.4287 7.22487 13.3819 7.65938 13.2908C7.88835 13.2394 8.11373 13.3647 8.19845 13.5757C8.28679 13.7875 8.21197 14.0318 8.01905 14.1553C7.64674 14.3969 7.28705 14.6908 6.94811 15.0298C5.5986 16.3793 5.12534 17.9198 5.60222 18.3968C6.0791 18.8755 7.62062 18.3977 8.96926 17.05C9.3055 16.7111 9.60299 16.3505 9.84459 15.98C9.93294 15.8421 10.0862 15.7637 10.243 15.7637ZM11.1806 15.3751C11.0922 15.3751 11.0039 15.3625 10.9164 15.3337C10.5901 15.2282 10.4134 14.9532 10.2827 14.7531C10.2403 14.6855 10.1745 14.5818 10.1421 14.5575C10.1096 14.5349 9.98882 14.5016 9.91039 14.4809C9.68142 14.4196 9.36499 14.3366 9.16576 14.0608C8.97014 13.7894 8.98277 13.4667 8.99629 13.2296V13.1701C8.98276 13.1124 8.98006 13.0547 8.98637 12.9988C8.95662 12.9105 8.89532 12.8384 8.85566 12.787C8.7015 12.6022 8.49597 12.3461 8.49597 12C8.49597 11.6529 8.7015 11.3978 8.85566 11.2112C8.89442 11.1625 8.95031 11.094 8.98006 11.0489C8.96023 10.9696 8.96383 10.8839 8.98997 10.7992C8.98997 10.7947 8.99358 10.7884 8.99628 10.7839C8.99628 10.7794 8.99268 10.774 8.99268 10.7685C8.98276 10.5324 8.96654 10.2087 9.16576 9.93647C9.36499 9.66242 9.67871 9.57858 9.91039 9.51728C9.98881 9.49655 10.1096 9.46319 10.1421 9.43886C10.1745 9.41632 10.2403 9.31175 10.2827 9.24414C10.4134 9.04311 10.5901 8.76995 10.9164 8.66359C11.2328 8.56082 11.5339 8.67621 11.7521 8.75824C11.9216 8.82315 12.0784 8.82315 12.2488 8.75824C12.4679 8.67531 12.768 8.55992 13.0845 8.66359C13.4108 8.76906 13.5875 9.044 13.7182 9.24414C13.7606 9.31175 13.8264 9.41542 13.8588 9.43976C13.8913 9.46229 14.0121 9.49565 14.0905 9.51638C14.3195 9.57768 14.6359 9.66062 14.8351 9.93647C15.0308 10.2078 15.0181 10.5305 15.0082 10.7676C15.0046 10.7875 15.0046 10.8064 15.0046 10.8271C15.0181 10.8848 15.0208 10.9425 15.0145 10.9984C15.0443 11.0868 15.1056 11.1589 15.1452 11.2103C15.2949 11.3978 15.504 11.6538 15.504 12C15.504 12.3461 15.2949 12.6022 15.1443 12.7879C15.0957 12.8492 15.0199 12.9411 15.0073 12.9781L15.0037 12.9763C15.01 13.0277 15.01 13.08 15.0001 13.1322C15.0037 13.1638 15.0037 13.1962 15.0064 13.2296C15.0163 13.4658 15.029 13.7894 14.8297 14.0617C14.6341 14.3357 14.3168 14.4196 14.0887 14.4809C14.0103 14.5016 13.8895 14.535 13.8534 14.5593C13.8237 14.5818 13.7552 14.6864 13.7128 14.754C13.5857 14.955 13.4054 15.2282 13.0827 15.3346C12.7663 15.4355 12.4652 15.3219 12.247 15.2399C12.0739 15.175 11.9207 15.175 11.7503 15.2399C11.5953 15.2994 11.396 15.3751 11.1806 15.3751ZM9.96178 13.519C9.99784 13.519 10.0889 13.5424 10.1511 13.5604C10.3278 13.6073 10.527 13.6596 10.7001 13.7867C10.8768 13.9147 10.9841 14.086 11.0823 14.2374C11.1283 14.3078 11.1968 14.415 11.2328 14.4394C11.2193 14.4222 11.3338 14.379 11.4122 14.3492C11.7521 14.2185 12.2416 14.2185 12.585 14.3492C12.6599 14.3781 12.778 14.4213 12.8167 14.4231C12.8005 14.4132 12.869 14.3078 12.915 14.2374C13.0132 14.0869 13.1241 13.9156 13.2972 13.7885C13.4739 13.6605 13.6695 13.6082 13.8426 13.5613C13.9246 13.5406 14.0454 13.5072 14.0806 13.482C14.0643 13.482 14.058 13.3576 14.0544 13.2747C14.0508 13.1962 14.0481 13.1196 14.0481 13.0439C14.0481 13.034 14.0481 13.024 14.0517 13.015C14.0553 12.9222 14.0616 12.8041 14.1004 12.6833C14.1653 12.4805 14.2933 12.3245 14.4042 12.1875C14.4601 12.1217 14.5412 12.0207 14.5511 11.9801C14.5412 11.9801 14.4601 11.8801 14.4042 11.8134C14.2933 11.6754 14.1662 11.5195 14.1004 11.3176C14.0643 11.2049 14.0544 11.0922 14.0517 11.0029C14.0481 10.9876 14.0481 10.9732 14.0481 10.957C14.0481 10.8821 14.0517 10.8037 14.0544 10.7253C14.058 10.6424 14.0643 10.517 14.0508 10.4765C14.0472 10.4936 13.9264 10.4612 13.8453 10.4395C13.6686 10.3926 13.473 10.3404 13.2963 10.2132C13.1196 10.0852 13.0123 9.91395 12.9141 9.76252C12.8681 9.6922 12.7996 9.58492 12.7671 9.56058C12.777 9.57771 12.6626 9.62098 12.5841 9.65073C12.2443 9.78145 11.7548 9.78145 11.4113 9.65073C11.3365 9.62188 11.2184 9.57861 11.1796 9.57681C11.1959 9.58673 11.1274 9.6922 11.0814 9.76252C10.9831 9.91306 10.8759 10.0843 10.6992 10.2114C10.5225 10.3395 10.3269 10.3917 10.1538 10.4386C10.0717 10.4594 9.95095 10.4927 9.9158 10.518C9.93203 10.518 9.93834 10.6424 9.94194 10.7253C9.94555 10.8037 9.94826 10.8804 9.94826 10.9561C9.94826 10.966 9.94826 10.9759 9.94465 10.9849C9.94465 11.0778 9.93473 11.1959 9.89597 11.3167C9.83106 11.5195 9.70305 11.6755 9.59217 11.8125C9.53628 11.8783 9.45515 11.9783 9.44523 12.0189C9.45785 12.0198 9.53628 12.1199 9.59217 12.1866C9.70306 12.3245 9.83015 12.4805 9.89597 12.6824C9.93203 12.7951 9.94194 12.9078 9.94465 12.997C9.94826 13.0123 9.94826 13.0268 9.94826 13.043C9.94826 13.1178 9.94465 13.1962 9.94194 13.2738C9.93834 13.3567 9.93203 13.482 9.94555 13.5226C9.94916 13.5199 9.95186 13.519 9.96178 13.519Z" fill="#333333"/>
</svg>
