<svg width="24" height="24" viewBox="0 0 24 24" fill="none" xmlns="http://www.w3.org/2000/svg">
<path d="M9.1111 8.45312C8.58634 8.45312 8.14844 8.89103 8.14844 9.41579C8.14844 9.94055 8.58634 10.3785 9.1111 10.3785C9.63586 10.3785 10.0738 9.94055 10.0738 9.41579C10.0738 8.89103 9.63586 8.45312 9.1111 8.45312Z" fill="#333333"/>
<path d="M14.8884 8.45312C14.3637 8.45312 13.9258 8.89103 13.9258 9.41579C13.9258 9.94055 14.3637 10.3785 14.8884 10.3785C15.4132 10.3785 15.8511 9.94055 15.8511 9.41579C15.8511 8.89103 15.4132 8.45312 14.8884 8.45312Z" fill="#333333"/>
<path d="M12 2.09961C17.4602 2.09982 21.8994 6.53977 21.8994 12C21.8992 17.4601 17.4601 21.8992 12 21.8994C6.53977 21.8994 2.09982 17.4602 2.09961 12C2.09961 6.53964 6.53964 2.09961 12 2.09961ZM12 2.37109C6.66831 2.37109 2.37109 6.66831 2.37109 12C2.3713 17.3315 6.66844 21.6289 12 21.6289C17.3314 21.6287 21.6287 17.3314 21.6289 12C21.6289 6.66844 17.3315 2.3713 12 2.37109Z" fill="#333333" stroke="#333333"/>
<path d="M16.3646 14.9131C16.6758 14.439 16.3392 13.9902 15.9158 14.0083C15.7204 14.0156 15.5539 14.1459 15.449 14.3051C14.6709 15.4704 13.3354 16.0531 12 16.0531C10.6646 16.0531 9.32916 15.4704 8.55468 14.3051C8.44973 14.1459 8.27961 14.0156 8.08781 14.0083C7.66437 13.9902 7.32782 14.439 7.63905 14.9131C8.63066 16.4223 10.3208 17.1678 12.0036 17.1678C13.6793 17.1678 15.373 16.4223 16.3646 14.9131Z" fill="#333333"/>
</svg>
