<svg width="24" height="24" viewBox="0 0 24 24" fill="none" xmlns="http://www.w3.org/2000/svg">
<path d="M8.1648 20.6929C8.1168 20.7121 8.0256 20.7553 8.0016 20.7697C7.8144 20.8897 7.7712 21.1345 7.8144 21.3217C7.8336 21.3985 7.9104 21.6529 8.1744 21.6913L13.7664 21.7057C14.0304 21.7057 14.1312 21.5665 14.184 21.4801C14.2896 21.2977 14.2848 21.0673 14.1696 20.8801C14.1312 20.8177 13.9776 20.6977 13.9248 20.6881H11.6208L11.496 20.4769V20.4241C11.6448 18.0865 12.384 15.7201 13.6944 13.3921L13.7712 13.2577L13.9152 13.3105C15.288 13.8001 16.7136 13.4305 18.1584 12.2209C21.3072 9.57606 22.4688 5.29926 23.0688 2.29926C23.0112 2.10246 22.9296 1.98726 22.8144 1.95366C22.5888 1.89606 22.0368 2.04006 21.7104 2.12646C21.624 2.15046 21.5424 2.16966 21.4752 2.18886C16.0128 3.50406 12.7296 5.69286 11.7168 8.69766C11.2272 10.1521 11.616 11.6017 12.7536 12.5761L12.792 12.6097L12.8448 12.7729L12.0672 14.3809L11.976 14.3953C11.9328 14.4001 11.8512 14.4145 11.7792 14.3617L11.7168 14.3137L11.7024 14.2177C11.6304 14.0641 11.5584 13.8577 11.4912 13.6609C11.4288 13.4785 11.3664 13.2913 11.2944 13.1233C10.9632 12.3601 10.5072 11.5633 9.8928 10.6849L9.84 10.6081L9.8688 10.5217C9.9216 10.3729 9.9984 10.2385 10.0752 10.1041C10.1424 9.98886 10.2048 9.88326 10.248 9.76806C10.9536 7.93446 8.7792 5.96646 7.0896 5.21286C5.6928 4.58886 3.288 4.04166 1.8384 4.01766C1.656 4.02246 1.4976 4.07526 1.3968 4.20006C1.272 4.34886 1.2288 4.57446 1.2768 4.80966C1.3344 5.08326 1.56 5.62086 1.728 6.01446L1.8384 6.27846C2.7312 8.45286 3.6912 9.90246 4.7664 10.7185C5.3856 11.1889 6.9792 12.2209 8.4336 11.6929C8.5584 11.6497 8.6688 11.5873 8.7792 11.5297C8.8608 11.4865 8.9424 11.4433 9.024 11.4049L9.1536 11.3473L9.24 11.4625C10.1856 12.7201 10.8192 14.2225 11.0304 15.6865C11.0592 15.8881 11.0784 16.0945 11.0928 16.2961C11.1072 16.4401 11.1168 16.5841 11.1312 16.7281V16.7617L11.1264 16.7953C10.7328 18.1681 10.5168 19.3873 10.464 20.5201L10.4544 20.6929H8.1504H8.1648ZM12.0528 14.1649V14.1841C12.0528 14.1841 12.0528 14.1745 12.0528 14.1649ZM15.1824 12.4465C14.4672 12.4465 13.8192 12.1441 13.248 11.5441C12.1296 10.3585 12.3024 8.81766 13.7472 7.08486C14.8896 5.71206 16.3392 4.96326 17.472 4.46406C18.7632 3.89766 20.1984 3.44646 21.7488 3.12006L22.032 3.05766L21.96 3.34086C21.528 4.99206 20.8848 7.12326 19.7424 8.98086C19.008 10.1761 17.28 12.2449 15.4512 12.4321C15.36 12.4417 15.2688 12.4465 15.1824 12.4465ZM7.5504 10.8625C7.0896 10.8625 6.5664 10.6849 5.9856 10.3297C4.1712 9.22086 3.1632 7.00806 2.5584 5.43846L2.4576 5.16966L2.7456 5.19366C4.0032 5.29926 5.1696 5.54886 6.12 5.91846C7.2528 6.35526 8.2704 7.19046 8.8416 8.15526C9.264 8.86566 9.4272 9.48486 8.8656 10.1953C8.5104 10.6417 8.0688 10.8673 7.5552 10.8673L7.5504 10.8625Z" fill="#333333"/>
</svg>
