<svg width="142" height="35" viewBox="0 0 142 35" fill="none" xmlns="http://www.w3.org/2000/svg">
<path d="M37.0544 12.4048H51.3312V15.0971H45.7176V30.2319H42.6307V15.0971H37.042V12.4048H37.0544ZM50.7213 17.3239H53.3601V19.8149H53.4098C53.497 19.4627 53.6588 19.123 53.8953 18.7959C54.1318 18.4688 54.4181 18.1542 54.7541 17.89C55.0902 17.6133 55.4636 17.3994 55.8744 17.2233C56.2851 17.0597 56.7083 16.9716 57.1315 16.9716C57.4551 16.9716 57.6916 16.9842 57.8161 16.9968C57.9406 17.0094 58.065 17.0345 58.202 17.0471V19.7898C58.0028 19.752 57.8036 19.7269 57.592 19.7017C57.3804 19.6765 57.1813 19.664 56.9821 19.664C56.5092 19.664 56.0611 19.7646 55.6379 19.9533C55.2147 20.142 54.8537 20.4314 54.5425 20.7962C54.2313 21.1737 53.9824 21.6266 53.7957 22.1801C53.609 22.7337 53.5219 23.3627 53.5219 24.0798V30.2193H50.7088V17.3239H50.7213ZM71.1344 30.2319H68.3712V28.4328H68.3214C67.9729 29.087 67.4625 29.6028 66.778 29.9928C66.0934 30.3829 65.3963 30.5842 64.6869 30.5842C63.0065 30.5842 61.7867 30.169 61.0399 29.3261C60.2931 28.4831 59.9196 27.2125 59.9196 25.5141V17.3239H62.7327V25.2373C62.7327 26.3696 62.9443 27.1747 63.3799 27.6402C63.8031 28.1057 64.413 28.3448 65.1847 28.3448C65.7822 28.3448 66.2676 28.2567 66.6659 28.068C67.0642 27.8793 67.3879 27.6402 67.6244 27.3257C67.8733 27.0238 68.0476 26.6463 68.1596 26.2186C68.2716 25.7908 68.3214 25.3253 68.3214 24.8221V17.3365H71.1344V30.2319ZM75.9265 26.0928C76.0137 26.9231 76.3248 27.5018 76.8601 27.8415C77.4077 28.1686 78.055 28.3448 78.8142 28.3448C79.0756 28.3448 79.3744 28.3196 79.7104 28.2819C80.0465 28.2441 80.3701 28.156 80.6564 28.0428C80.9551 27.9296 81.1916 27.7535 81.3908 27.527C81.5775 27.3005 81.6646 27.0112 81.6522 26.6463C81.6397 26.2815 81.5028 25.9796 81.2539 25.7531C81.0049 25.5141 80.6937 25.3379 80.3079 25.187C79.922 25.0486 79.4864 24.9228 78.9885 24.8221C78.4906 24.7215 77.9927 24.6082 77.4824 24.495C76.9596 24.3818 76.4493 24.2308 75.9639 24.0673C75.4784 23.9037 75.0428 23.6772 74.6569 23.3879C74.2711 23.1111 73.9599 22.7463 73.7359 22.3059C73.4994 21.8656 73.3873 21.3246 73.3873 20.6704C73.3873 19.9659 73.5616 19.3872 73.8977 18.9091C74.2337 18.431 74.6694 18.0536 75.1797 17.7642C75.7025 17.4749 76.275 17.2736 76.9098 17.1478C77.5446 17.0345 78.1545 16.9716 78.7271 16.9716C79.3868 16.9716 80.0216 17.0471 80.6191 17.1855C81.2165 17.3239 81.7642 17.5504 82.2496 17.8775C82.7351 18.192 83.1334 18.6072 83.457 19.1104C83.7806 19.6136 83.9798 20.2301 84.0669 20.9472H81.1294C80.9925 20.2678 80.6937 19.8023 80.2083 19.5759C79.7229 19.3368 79.1628 19.2236 78.5404 19.2236C78.3413 19.2236 78.1048 19.2362 77.8309 19.2739C77.5571 19.3117 77.3081 19.3746 77.0592 19.4627C76.8227 19.5507 76.6236 19.6891 76.4493 19.8652C76.2875 20.0414 76.2004 20.2678 76.2004 20.5572C76.2004 20.9095 76.3248 21.1862 76.5613 21.4001C76.7978 21.614 77.109 21.7901 77.4949 21.9411C77.8807 22.0795 78.3164 22.2053 78.8142 22.3059C79.3121 22.4066 79.8224 22.5198 80.3452 22.633C80.8555 22.7463 81.3534 22.8972 81.8513 23.0608C82.3492 23.2243 82.7848 23.4508 83.1707 23.7402C83.5566 24.0295 83.8677 24.3818 84.1042 24.8095C84.3407 25.2373 84.4652 25.7783 84.4652 26.4073C84.4652 27.1747 84.2909 27.8164 83.9424 28.3573C83.5939 28.8857 83.1458 29.3261 82.5981 29.6532C82.0505 29.9803 81.4281 30.2319 80.756 30.3829C80.0838 30.5338 79.4117 30.6093 78.752 30.6093C77.9429 30.6093 77.1961 30.5212 76.5115 30.3325C75.827 30.1438 75.2295 29.867 74.7316 29.5022C74.2337 29.1248 73.8354 28.6593 73.5491 28.1057C73.2629 27.5522 73.1135 26.8854 73.0886 26.1179H75.9265V26.0928ZM85.212 17.3239H87.3405V13.449H90.1535V17.3239H92.6927V19.4501H90.1535V26.3444C90.1535 26.6463 90.1659 26.898 90.1908 27.1244C90.2157 27.3383 90.278 27.527 90.3651 27.678C90.4522 27.8289 90.5891 27.9422 90.7758 28.0177C90.9625 28.0931 91.199 28.1309 91.5227 28.1309C91.7218 28.1309 91.921 28.1309 92.1201 28.1183C92.3193 28.1057 92.5184 28.0806 92.7176 28.0302V30.2319C92.4064 30.2696 92.0952 30.2948 91.8089 30.3325C91.5102 30.3703 91.2115 30.3829 90.9003 30.3829C90.1535 30.3829 89.556 30.3074 89.1079 30.169C88.6598 30.0306 88.2989 29.8167 88.0499 29.5399C87.7886 29.2632 87.6267 28.9235 87.5272 28.5083C87.44 28.0931 87.3778 27.6151 87.3654 27.0867V19.4752H85.2369V17.3239H85.212ZM94.6842 17.3239H97.3479V19.0727H97.3977C97.796 18.3178 98.3436 17.7894 99.0531 17.4623C99.7626 17.1352 100.522 16.9716 101.356 16.9716C102.364 16.9716 103.235 17.1478 103.982 17.5126C104.729 17.8649 105.351 18.3555 105.849 18.9846C106.347 19.6136 106.708 20.3433 106.957 21.1737C107.206 22.004 107.33 22.8972 107.33 23.8408C107.33 24.7089 107.218 25.5518 106.994 26.357C106.77 27.1747 106.434 27.8918 105.986 28.5209C105.538 29.1499 104.965 29.6406 104.268 30.018C103.571 30.3954 102.762 30.5842 101.816 30.5842C101.406 30.5842 100.995 30.5464 100.584 30.4709C100.173 30.3954 99.775 30.2696 99.4016 30.1061C99.0282 29.9425 98.6673 29.7287 98.3561 29.4645C98.0325 29.2003 97.7711 28.8983 97.547 28.5586H97.4972V35H94.6842V17.3239ZM104.517 23.7905C104.517 23.2118 104.443 22.6456 104.293 22.0921C104.144 21.5385 103.92 21.0604 103.621 20.6327C103.322 20.2049 102.949 19.8652 102.513 19.6136C102.065 19.362 101.555 19.2236 100.982 19.2236C99.7999 19.2236 98.9037 19.6388 98.3063 20.4691C97.7088 21.2995 97.4101 22.4066 97.4101 23.7905C97.4101 24.4447 97.4848 25.0486 97.6466 25.6021C97.8084 26.1557 98.0325 26.6338 98.3561 27.0363C98.6673 27.4389 99.0407 27.7535 99.4763 27.9799C99.912 28.2189 100.422 28.3322 100.995 28.3322C101.642 28.3322 102.177 28.1938 102.625 27.9296C103.074 27.6654 103.434 27.3131 103.721 26.898C104.007 26.4702 104.219 25.9921 104.343 25.4512C104.455 24.9102 104.517 24.3566 104.517 23.7905ZM109.484 12.4048H112.297V15.0971H109.484V12.4048ZM109.484 17.3239H112.297V30.2319H109.484V17.3239ZM114.811 12.4048H117.624V30.2319H114.811V12.4048ZM126.25 30.5842C125.229 30.5842 124.321 30.408 123.524 30.0683C122.727 29.7287 122.055 29.2506 121.495 28.6593C120.947 28.0554 120.524 27.3383 120.238 26.5079C119.952 25.6776 119.802 24.7592 119.802 23.7653C119.802 22.784 119.952 21.8782 120.238 21.0478C120.524 20.2175 120.947 19.5004 121.495 18.8965C122.043 18.2926 122.727 17.8271 123.524 17.4875C124.321 17.1478 125.229 16.9716 126.25 16.9716C127.271 16.9716 128.179 17.1478 128.976 17.4875C129.772 17.8271 130.445 18.3052 131.005 18.8965C131.552 19.5004 131.976 20.2175 132.262 21.0478C132.548 21.8782 132.697 22.784 132.697 23.7653C132.697 24.7592 132.548 25.6776 132.262 26.5079C131.976 27.3383 131.552 28.0554 131.005 28.6593C130.457 29.2632 129.772 29.7287 128.976 30.0683C128.179 30.408 127.271 30.5842 126.25 30.5842ZM126.25 28.3322C126.872 28.3322 127.42 28.1938 127.88 27.9296C128.341 27.6654 128.714 27.3131 129.013 26.8854C129.312 26.4576 129.523 25.967 129.673 25.426C129.81 24.885 129.884 24.3315 129.884 23.7653C129.884 23.2118 129.81 22.6708 129.673 22.1172C129.536 21.5637 129.312 21.0856 129.013 20.6578C128.714 20.2301 128.341 19.8904 127.88 19.6262C127.42 19.362 126.872 19.2236 126.25 19.2236C125.628 19.2236 125.08 19.362 124.619 19.6262C124.159 19.8904 123.785 20.2427 123.487 20.6578C123.188 21.0856 122.976 21.5637 122.827 22.1172C122.69 22.6708 122.615 23.2118 122.615 23.7653C122.615 24.3315 122.69 24.885 122.827 25.426C122.964 25.967 123.188 26.4576 123.487 26.8854C123.785 27.3131 124.159 27.6654 124.619 27.9296C125.08 28.2064 125.628 28.3322 126.25 28.3322ZM133.519 17.3239H135.647V13.449H138.46V17.3239H141V19.4501H138.46V26.3444C138.46 26.6463 138.473 26.898 138.498 27.1244C138.523 27.3383 138.585 27.527 138.672 27.678C138.759 27.8289 138.896 27.9422 139.083 28.0177C139.269 28.0931 139.506 28.1309 139.83 28.1309C140.029 28.1309 140.228 28.1309 140.427 28.1183C140.626 28.1057 140.825 28.0806 141.025 28.0302V30.2319C140.713 30.2696 140.402 30.2948 140.116 30.3325C139.817 30.3703 139.518 30.3829 139.207 30.3829C138.46 30.3829 137.863 30.3074 137.415 30.169C136.967 30.0306 136.606 29.8167 136.357 29.5399C136.095 29.2632 135.934 28.9235 135.834 28.5083C135.747 28.0931 135.685 27.6151 135.672 27.0867V19.4752H133.544V17.3239H133.519Z" fill="#444444"/>
<path d="M33.7688 12.4047H20.8737L16.8906 0L12.8951 12.4047L0 12.3922L10.4431 20.0665L6.44756 32.4587L16.8906 24.7969L27.3212 32.4587L23.3382 20.0665L33.7688 12.4047Z" fill="#00B67A"/>
<path d="M24.2344 22.8721L23.3382 20.0665L16.8906 24.7969L24.2344 22.8721Z" fill="#005128"/>
</svg>
